<svg width="38" height="32" viewBox="0 0 38 32" fill="none" xmlns="http://www.w3.org/2000/svg">
<path fill-rule="evenodd" clip-rule="evenodd" d="M29.4944 0.0198928C29.3313 0.00659587 29.1665 -0.000183105 29 -0.000183105H6C2.68629 -0.000183105 0 2.68611 0 5.99982V25.9998C0 29.3135 2.68629 31.9998 6 31.9998H29C32.3137 31.9998 35 29.3135 35 25.9998V15.767L33 14.5483V25.9998C33 28.209 31.2091 29.9998 29 29.9998H6C3.79086 29.9998 2 28.209 2 25.9998V5.99982C2 3.79068 3.79086 1.99982 6 1.99982H25.3893L29.4944 0.0198928Z" fill="black"/>
<path d="M3.5 27.4996L13 11.9998L21.5 20.5L33 3.5" stroke="black" stroke-width="2"/>
<path d="M33.8018 10.9816L33.1619 2.70827L25.3801 5.58948" stroke="black" stroke-width="1.66667" stroke-linecap="square" stroke-linejoin="round"/>
</svg>
