<svg width="38" height="32" viewBox="0 0 38 32" fill="none" xmlns="http://www.w3.org/2000/svg">
<path fill-rule="evenodd" clip-rule="evenodd" d="M29.4944 0.0200759C29.3313 0.00677897 29.1665 0 29 0H6C2.68629 0 0 2.68629 0 6V26C0 29.3137 2.68629 32 6 32H29C32.3137 32 35 29.3137 35 26V15.7671L33 14.5485V26C33 28.2091 31.2091 30 29 30H6C3.79086 30 2 28.2091 2 26V6C2 3.79086 3.79086 2 6 2H25.3893L29.4944 0.0200759Z" fill="white"/>
<path d="M3.5 27.4998L13 12L21.5 20.5002L33 3.50018" stroke="white" stroke-width="2"/>
<path d="M33.8018 10.9818L33.1619 2.70845L25.3801 5.58966" stroke="white" stroke-width="1.66667" stroke-linecap="square" stroke-linejoin="round"/>
</svg>
