<svg width="78" height="71" viewBox="0 0 78 71" fill="none" xmlns="http://www.w3.org/2000/svg">
<path fill-rule="evenodd" clip-rule="evenodd" d="M58.3619 7.99969H6C2.68629 7.99969 0 10.686 0 13.9997V64.9997C0 68.3134 2.68629 70.9997 6 70.9997H62C65.3137 70.9997 68 68.3134 68 64.9997V37.2939L64 34.9079V64.9997C64 66.1043 63.1046 66.9997 62 66.9997H6C4.89543 66.9997 4 66.1043 4 64.9997V13.9997C4 12.8951 4.89543 11.9997 6 11.9997H50.2637L58.3619 7.99969Z" fill="black"/>
<path d="M7.5 64.4997L21 32.4997L40 50.4997L56.4796 24.5327" stroke="black" stroke-width="4"/>
<path d="M64.9876 8.46942L65.8578 32.4194L43.5 19.0829L64.9876 8.46942Z" fill="black"/>
</svg>
